<?xml version="1.0" encoding="UTF-8"?>
<svg xmlns="http://www.w3.org/2000/svg" width="16" height="20" viewBox="0 0 16 20">
  <path fill="#6A747F" d="M64.00001,410.999985 L69.50001,410.999985 L64.00001,405.499985 L64.00001,410.999985 Z M57,403.999985 L65.00001,403.999985 L71.00001,409.999985 L71.00001,422.000015 C71.00001,423.104015 70.10401,424.000015 69.00001,424.000015 L56.98999,424.000015 C55.88599,424.000015 55,423.104015 55,422.000015 L55.01001,405.999985 C55.01001,404.895985 55.89498,403.999985 57,403.999985 Z M68.00061,421.001915 L68.00061,415.001915 L65.00061,417.201915 L65.00061,415.001915 L58.0006,415.001915 L58.0006,421.001915 L65.00061,421.001915 L65.00061,418.801915 L68.00061,421.001915 Z" transform="translate(-55 -404)"/>
</svg>
