<?xml version="1.0" encoding="UTF-8"?>
<svg xmlns="http://www.w3.org/2000/svg" width="22" height="22" viewBox="0 0 22 22">
  <path fill="#7C7E8C" d="M11,2 C17.0719657,2 22,6.92792433 22,13 C22,19.0719657 17.0719657,24 11,24 C4.92803431,24 0,19.0719657 0,13 C0,6.92792433 4.92792431,2 11,2 Z M13.4142136,11 L15.7071068,8.70710678 C16.0976311,8.31658249 16.0976311,7.68341751 15.7071068,7.29289322 C15.3165825,6.90236893 14.6834175,6.90236893 14.2928932,7.29289322 L11,10.5857864 L7.70710678,7.29289322 C7.31658249,6.90236893 6.68341751,6.90236893 6.29289322,7.29289322 C5.90236893,7.68341751 5.90236893,8.31658249 6.29289322,8.70710678 L8.58578644,11 L7,11 C6.44771525,11 6,11.4477153 6,12 C6,12.5522847 6.44771525,13 7,13 L10,13 L10,14 L8,14 C7.44771525,14 7,14.4477153 7,15 C7,15.5522847 7.44771525,16 8,16 L10,16 L10,18 C10,18.5522847 10.4477153,19 11,19 C11.5522847,19 12,18.5522847 12,18 L12,16 L14,16 C14.5522847,16 15,15.5522847 15,15 C15,14.4477153 14.5522847,14 14,14 L12,14 L12,13 L15,13 C15.5522847,13 16,12.5522847 16,12 C16,11.4477153 15.5522847,11 15,11 L13.4142136,11 Z" transform="translate(0 -2)"/>
</svg>
