<?xml version="1.0" encoding="UTF-8"?>
<svg xmlns="http://www.w3.org/2000/svg" width="19" height="19" viewBox="0 0 19 19">
  <path fill="#7C7E8C" fill-rule="evenodd" d="M144.894648,618 L139.496648,618 C138.829648,618 138.495648,618.807 138.966648,619.278 L140.417648,620.729 C140.682648,620.994 140.682648,621.424 140.417648,621.689 L139.031648,623.075 C138.679648,623.428 138.138648,623.518 137.698648,623.284 C136.273648,622.525 134.567648,622.224 132.775648,622.585 C129.943648,623.155 127.674648,625.452 127.135648,628.29 C126.161648,633.422 130.578648,637.839 135.710648,636.865 C138.548648,636.327 140.845648,634.057 141.415648,631.225 C141.776648,629.433 141.475648,627.727 140.717648,626.303 C140.482648,625.862 140.572648,625.321 140.925648,624.969 L142.311648,623.583 C142.576648,623.318 143.006648,623.318 143.271648,623.583 L144.719648,625.031 C145.191648,625.503 145.997648,625.169 145.997648,624.502 L145.997648,619.104 C145.997648,618.494 145.503648,618 144.894648,618 L144.894648,618 Z M134.281648,634.292 C131.743648,634.292 129.687648,632.236 129.687648,629.699 C129.687648,627.162 131.743648,625.105 134.281648,625.105 C136.818648,625.105 138.874648,627.162 138.874648,629.699 C138.874648,632.236 136.818648,634.292 134.281648,634.292 L134.281648,634.292 Z" transform="translate(-127 -618)"/>
</svg>
