<?xml version="1.0" encoding="UTF-8"?>
<svg xmlns="http://www.w3.org/2000/svg" width="20" height="21" viewBox="0 0 20 21">
  <g fill="none" fill-rule="evenodd" transform="translate(-2 -1.28)">
    <rect width="24" height="24"/>
    <g fill="#6A747F" fill-rule="nonzero" transform="translate(2 2)">
      <path d="M18.103,7.589 L18.822,6.87 C20.392,5.302 20.392,2.746 18.822,1.178 C17.253,-0.392 14.698,-0.392 13.13,1.178 L12.411,1.897 L18.103,7.589 Z"/>
      <polygon points="10.997 3.311 2.092 12.215 5.664 12.923 13.136 5.449"/>
      <path d="M0.295,19.706 C0.542,19.954 0.903,20.053 1.244,19.969 L5.922,18.799 L5.142,14.858 L1.201,14.077 L0.032,18.755 C-0.053,19.097 0.046,19.457 0.295,19.706 Z"/>
      <polygon points="14.55 6.863 7.078 14.337 7.785 17.907 16.689 9.003"/>
    </g>
  </g>
</svg>
