<?xml version="1.0" encoding="UTF-8"?>
<svg xmlns="http://www.w3.org/2000/svg" width="22" height="18" viewBox="0 0 22 18">
  <path fill="#6A747F" d="M20,0.003 L2,0.003 C0.896,0.003 0,0.899 0,2.003 L0,16.003 C0,17.107 0.896,18.003 2,18.003 L20,18.003 C21.104,18.003 22,17.107 22,16.003 L22,2.003 C22,0.898 21.104,0.003 20,0.003 Z M11,16.003 C7.14,16.003 4,12.863 4,9.003 C4,5.144 7.14,2.003 11,2.003 C14.86,2.003 18,5.144 18,9.003 C18,12.863 14.86,16.003 11,16.003 Z M11,4.003 C8.243,4.003 6,6.246 6,9.003 C6,11.761 8.243,14.003 11,14.003 C13.757,14.003 16,11.761 16,9.003 C16,6.246 13.757,4.003 11,4.003 Z M9,12.003 L9,6.003 L14,9.003 L9,12.003 Z"/>
</svg>
