<?xml version="1.0" encoding="UTF-8"?>
<svg width="27px" height="26px" viewBox="0 0 27 26" version="1.1" xmlns="http://www.w3.org/2000/svg" xmlns:xlink="http://www.w3.org/1999/xlink">
    <!-- Generator: Sketch 48.2 (47327) - http://www.bohemiancoding.com/sketch -->
    <title>clap-hands</title>
    <desc>Created with Sketch.</desc>
    <defs></defs>
    <g id="直播间-未开播" stroke="none" stroke-width="1" fill="none" fill-rule="evenodd" transform="translate(-1207.000000, -797.000000)">
        <g id="Group-2" transform="translate(1100.000000, 140.000000)" fill="#6A747F" fill-rule="nonzero">
            <g id="Group-3">
                <g id="Group-10">
                    <g id="Group-21" transform="translate(0.000000, 639.000000)">
                        <g id="Group-2" transform="translate(80.299470, 0.708746)">
                            <g id="clap-hands" transform="translate(27.000000, 17.291254)">
                                <path d="M6.67418182,7.141 L12.2201818,1.59490909 C12.4567273,1.35845455 12.7684545,1.24009091 13.0802727,1.24009091 C13.4362727,1.24018182 13.7921818,1.39427273 14.0362727,1.70254545 C14.4230909,2.19127273 14.3552727,2.90054545 13.9144545,3.34136364 L7.64909091,9.72190909 L7.62790909,8.98372727 C7.62209091,8.22609091 7.24690909,7.555 6.67418182,7.141 Z M1.52981818,17.4143636 L0.15,16.0366364 C-0.0392727273,15.8477273 -0.0508181818,15.5449091 0.123545455,15.3421818 L1.24,14.0441818 C1.24054545,14.0436364 1.241,14.0427273 1.24109091,14.0418182 L2.39745455,5.63427273 C2.39745455,4.97190909 2.93936364,4.43 3.60172727,4.43 C4.26409091,4.43 4.80609091,4.97190909 4.80609091,5.63427273 L4.83827273,6.76090909 C3.83681818,6.98172727 3.07854545,7.858 3.03918182,8.91545455 L1.93509091,16.9432727 L1.52981818,17.4143636 Z M15.3458182,3.57881818 L16.0135455,2.911 C16.2501818,2.67454545 16.5619091,2.55627273 16.8737273,2.55627273 C17.2296364,2.55627273 17.5856364,2.71036364 17.8296364,3.01863636 C18.2165455,3.50745455 18.1487273,4.21663636 17.7079091,4.65754545 L17.0576364,5.30772727 C16.985,4.98190909 16.8411818,4.66881818 16.6228182,4.39290909 C16.2951818,3.979 15.8463636,3.69672727 15.3458182,3.57881818 Z M23.0310909,4.05036364 C22.8600909,4.05036364 22.6917273,3.97009091 22.5854545,3.81981818 C22.4114545,3.57390909 22.4697273,3.23345455 22.7156364,3.05954545 L24.0778182,2.09563636 C24.3237273,1.92154545 24.6641818,1.97990909 24.8380909,2.22581818 C25.0120909,2.47172727 24.9538182,2.81218182 24.7079091,2.98609091 L23.3457273,3.95 C23.25,4.01781818 23.14,4.05036364 23.0310909,4.05036364 Z M21.099,2.67272727 C20.8170909,2.56672727 20.6743636,2.25218182 20.7803636,1.97027273 L21.3676364,0.408272727 C21.4736364,0.126363636 21.7880909,-0.0164545455 22.0700909,0.0896363636 C22.3520909,0.195636364 22.4947273,0.510181818 22.3887273,0.792090909 L21.8014545,2.35409091 C21.7192727,2.57290909 21.5115455,2.70781818 21.2908182,2.70781818 C21.2270909,2.70781818 21.1621818,2.69654545 21.099,2.67272727 Z M25.3861818,5.05663636 C25.6823636,5.05663636 25.9253636,5.27218182 25.9313636,5.56954545 C25.9374545,5.87072727 25.6982727,6.11290909 25.3970909,6.11909091 L23.7288182,6.14754545 C23.725,6.14754545 23.7212727,6.14754545 23.7175455,6.14754545 C23.4213636,6.14754545 23.1783636,5.906 23.1723636,5.60863636 C23.1662727,5.30754545 23.4054545,5.07672727 23.7066364,5.07063636 L25.3749091,5.05663636 C25.3787273,5.05663636 25.3824545,5.05663636 25.3861818,5.05663636 Z M21.6327273,16.0501818 L18.4843636,19.1983636 C15.7956364,21.8871818 12.985,24.0453636 10.516,24.5835455 C10.441,24.6 10.3705455,24.6315455 10.3095455,24.6783636 L8.88636364,25.7712727 C8.79418182,25.8420909 8.68463636,25.8769091 8.57554545,25.8769091 C8.44427273,25.8769091 8.31372727,25.8264545 8.21472727,25.7277273 L1.88109091,19.4040909 C1.69172727,19.2152727 1.68018182,18.9122727 1.85463636,18.7095455 L2.971,17.4117273 C2.97163636,17.4110909 2.972,17.4102727 2.97218182,17.4092727 L4.12845455,9.00181818 C4.12845455,8.33945455 4.67045455,7.79745455 5.33281818,7.79745455 C5.99518182,7.79745455 6.53709091,8.33945455 6.53709091,9.00181818 L6.59390909,10.9859091 C6.60327273,11.3155455 6.87463636,11.5300909 7.15672727,11.5300909 C7.29436364,11.5300909 7.43472727,11.479 7.54845455,11.3652727 L13.9512727,4.96245455 C14.1879091,4.72590909 14.4995455,4.60763636 14.8114545,4.60763636 C15.1673636,4.60763636 15.5233636,4.76172727 15.7673636,5.07 C16.1542727,5.55881818 16.0863636,6.26809091 15.6455455,6.70890909 L11.2348182,11.1196364 C11.0058182,11.3485455 11.0058182,11.7198182 11.2348182,11.9488182 C11.3506364,12.0647273 11.5026364,12.1227273 11.6545455,12.1227273 C11.8064545,12.1227273 11.9584545,12.0647273 12.0742727,11.9488182 L17.7446364,6.27854545 C17.9811818,6.042 18.2929091,5.92372727 18.6048182,5.92372727 C18.9607273,5.92372727 19.3167273,6.07781818 19.5607273,6.38609091 C19.9476364,6.87490909 19.8797273,7.58418182 19.4389091,8.025 L13.7951818,13.6687273 C13.5630909,13.9008182 13.5630909,14.2770909 13.7951818,14.5092727 C13.9095455,14.6236364 14.0594545,14.6808182 14.2093636,14.6808182 C14.3592727,14.6808182 14.5090909,14.6236364 14.6234545,14.5092727 L19.0608182,10.0719091 C19.2974545,9.83536364 19.6091818,9.71709091 19.921,9.71709091 C20.2769091,9.71709091 20.6329091,9.87118182 20.8769091,10.1794545 C21.2638182,10.6682727 21.196,11.3775455 20.7550909,11.8183636 L16.3597273,16.2138182 C16.1222727,16.4511818 16.1222727,16.8362727 16.3597273,17.0736364 L16.3668182,17.0808182 C16.4765455,17.1904545 16.6202727,17.2453636 16.7640909,17.2453636 C16.9079091,17.2453636 17.0517273,17.1904545 17.1613636,17.0808182 L19.8862727,14.3559091 C20.1318182,14.1103636 20.4605455,13.9805455 20.7882727,13.9805455 C21.0487273,13.9805455 21.3086364,14.0626364 21.5251818,14.2340909 C22.1035455,14.6919091 22.1392727,15.5436364 21.6327273,16.0501818 Z M14.8115455,3.51672727 L14.8120871,3.51672727 L14.8115455,3.51672727 Z" id="Combined-Shape"></path>
                            </g>
                        </g>
                    </g>
                </g>
            </g>
        </g>
    </g>
</svg>