<?xml version="1.0" encoding="UTF-8"?>
<svg width="31px" height="31px" viewBox="0 0 31 31" version="1.1" xmlns="http://www.w3.org/2000/svg" xmlns:xlink="http://www.w3.org/1999/xlink">
    <!-- Generator: Sketch 48.2 (47327) - http://www.bohemiancoding.com/sketch -->
    <title>emoticon</title>
    <desc>Created with Sketch.</desc>
    <defs></defs>
    <g id="直播间-全屏样式" stroke="none" stroke-width="1" fill="none" fill-rule="evenodd" transform="translate(-899.000000, -845.000000)">
        <g id="emoticon" transform="translate(899.000000, 845.000000)" fill="#6A747F" fill-rule="nonzero">
            <path d="M15.7609905,23.8897054 C19.3114667,23.8897054 22.3209905,21.6687276 23.5430857,18.5508165 L7.97889524,18.5508165 C9.20099048,21.6687276 12.210499,23.8897054 15.7609905,23.8897054 Z M10.4276419,13.9746261 C11.6908648,13.9746261 12.7133562,12.9495594 12.7133562,11.6864851 C12.7133562,10.4234565 11.6908648,9.39838982 10.4276419,9.39838982 C9.16440381,9.39838982 8.14192762,10.4234565 8.14192762,11.6864851 C8.14192762,12.9495594 9.16440381,13.9746261 10.4276419,13.9746261 Z M21.0943238,13.9746261 C22.3575619,13.9746261 23.3800381,12.9495594 23.3800381,11.6864851 C23.3800381,10.4234565 22.3575619,9.39838982 21.0943238,9.39838982 C19.8310857,9.39838982 18.8086095,10.4234565 18.8086095,11.6864851 C18.8086095,12.9495594 19.8310857,13.9746261 21.0943238,13.9746261 Z M15.7609905,27.7031975 C9.02573714,27.7031975 3.57049905,22.2392261 3.57049905,15.5000229 C3.57049905,8.76077394 9.02573714,3.29680252 15.7609905,3.29680252 C22.4962286,3.29680252 27.9514667,8.76077394 27.9514667,15.5000229 C27.9514667,22.2392261 22.4962286,27.7031975 15.7609905,27.7031975 Z M15.7533714,0.246008865 C7.33126095,0.246008865 0.52288,7.07521045 0.52288,15.5000229 C0.52288,23.9247895 7.33126095,30.7539911 15.7533714,30.7539911 C24.1739429,30.7539911 30.9990857,23.9247895 30.9990857,15.5000229 C30.9990857,7.07521045 24.1739429,0.246008865 15.7533714,0.246008865 Z" id="Shape"></path>
        </g>
    </g>
</svg>