<?xml version="1.0" encoding="UTF-8"?>
<svg width="25px" height="25px" viewBox="0 0 25 25" version="1.1" xmlns="http://www.w3.org/2000/svg" xmlns:xlink="http://www.w3.org/1999/xlink">
    <!-- Generator: Sketch 48.2 (47327) - http://www.bohemiancoding.com/sketch -->
    <title>icon_60_flower_fill@2x</title>
    <desc>Created with Sketch.</desc>
    <defs></defs>
    <g id="直播间-未开播" stroke="none" stroke-width="1" fill="none" fill-rule="evenodd" transform="translate(-1128.000000, -797.000000)">
        <g id="Group-2" transform="translate(1100.000000, 140.000000)" fill="#6A747F" fill-rule="nonzero">
            <g id="Group-3">
                <g id="Group-10">
                    <g id="Group-21" transform="translate(0.000000, 639.000000)">
                        <g id="Group" transform="translate(0.299470, 0.708746)">
                            <g id="icon_60_flower_fill@2x" transform="translate(28.000000, 17.791254)">
                                <path d="M6.49047391,17.8691084 C9.18824096,19.3824899 10.1094297,22.5408514 10.1752289,22.6724498 C10.2410281,22.8698474 10.1752289,23.0014458 10.1094297,23.1988434 C10.0436305,23.396241 9.91203212,23.4620401 9.71463453,23.5278393 C9.64883532,23.5278393 8.85924495,23.7252369 7.67485941,23.7252369 C6.1614779,23.7252369 4.84549394,23.396241 3.7269076,22.738249 C1.02914055,21.2248674 0.107951807,18.066506 0.0421525976,17.9349076 C-0.0236465735,17.73751 0.0421525976,17.6059116 0.107951807,17.408514 C0.173751017,17.2111165 0.305349398,17.1453173 0.502746988,17.0795181 C0.568546198,17.0795181 1.35813656,16.8821205 2.5425221,16.8821205 C4.05590361,16.8821205 5.37188758,17.2111165 6.49047391,17.8691084 Z M23.7956627,17.408514 C23.927261,17.6059116 23.927261,17.8033092 23.8614619,17.9349076 C23.8614619,18.066506 22.8744739,21.2248675 20.242506,22.738249 C19.1239197,23.396241 17.8079357,23.7252369 16.2945542,23.7252369 C15.1101687,23.7252369 14.3205783,23.5278393 14.2547791,23.5278393 C14.1231807,23.4620402 13.9257831,23.396241 13.8599839,23.1988434 C13.7941847,23.0014458 13.7283855,22.8698474 13.7941847,22.6724498 C13.7941847,22.5408514 14.7811727,19.3824899 17.4131405,17.8691084 C18.5317269,17.2111165 19.8477108,16.8821205 21.3610924,16.8821205 C22.5454779,16.8821205 23.3350683,17.0795181 23.4008675,17.0795181 C23.5324659,17.1453172 23.7298634,17.2769157 23.7956627,17.408514 Z M21.8216867,6.68324499 C21.8216867,11.4207872 17.4131405,15.9609317 12.6755984,16.3557269 L12.6755985,23.725237 C12.6755985,24.1200322 12.4124017,24.383229 12.0176065,24.383229 C11.6228113,24.383229 11.3596145,24.1200322 11.3596145,23.725237 L11.3596145,16.4215261 C6.55627316,16.0267309 2.14772696,11.4865864 2.14772696,6.68324499 C2.08192775,6.61744582 1.88453016,4.38027312 2.34512455,2.6036948 C2.54252214,1.81410444 3.26631329,1.28771088 4.05590365,1.41930926 C5.0428916,1.61670685 6.81946992,2.07730124 8.33285143,3.39328517 C9.05664258,1.61670685 10.5700241,0.629718901 11.2280161,0.23492372 C11.6886105,-0.0282730795 12.215004,-0.0282730795 12.6755984,0.23492372 C13.3335904,0.695518111 14.8469719,1.68250606 15.5707631,3.39328517 C16.886747,2.20889962 18.5975261,1.68250606 19.8477108,1.41930926 C20.6373012,1.22191167 21.3610924,1.74830523 21.5584899,2.5378956 C22.0848835,4.44607229 21.887486,6.35424902 21.8216867,6.68324499 Z" id="Combined-Shape"></path>
                            </g>
                        </g>
                    </g>
                </g>
            </g>
        </g>
    </g>
</svg>