<?xml version="1.0" encoding="UTF-8"?>
<svg xmlns="http://www.w3.org/2000/svg" width="20" height="20" viewBox="0 0 20 20">
  <path fill="#FFF" d="M1181,610.5 C1181.965,610.5 1182.75,609.715 1182.75,608.75 C1182.75,607.785 1181.965,607 1181,607 C1180.035,607 1179.25,607.785 1179.25,608.75 C1179.25,609.715 1180.035,610.5 1181,610.5 Z M1184,601 C1189.514,601 1194,605.486 1194,611 C1194,616.515 1189.514,621 1184,621 C1178.486,621 1174,616.515 1174,611 C1174,605.486 1178.486,601 1184,601 Z M1184,619 C1188.411,619 1192,615.411 1192,611 C1192,606.589 1188.411,603 1184,603 C1179.589,603 1176,606.589 1176,611 C1176,615.411 1179.589,619 1184,619 Z M1184,615 C1185.27,615 1186.437,614.417 1187.2,613.399 L1188.8,614.601 C1187.655,616.126 1185.905,617 1184,617 C1182.098,617 1180.35,616.128 1179.203,614.605 L1180.801,613.402 C1181.566,614.418 1182.732,615 1184,615 Z M1185,608 L1189,608 L1189,610 L1185,610 L1185,608 Z" opacity=".8" transform="translate(-1174 -601)"/>
</svg>
