<?xml version="1.0" encoding="UTF-8"?>
<svg xmlns="http://www.w3.org/2000/svg" width="20" height="20" viewBox="0 0 20 20">
  <g fill="none" fill-rule="evenodd">
    <path fill="#66BB6A" fill-rule="nonzero" d="M9.99948504,0 C4.47705855,0 7.10542736e-15,4.47785788 7.10542736e-15,10 C7.10542736e-15,15.523172 4.47705855,20 9.99948504,20 C15.5229414,20 20,15.523172 20,10 C20,4.47785788 15.5229414,0 9.99948504,0 Z"/>
    <path fill="#FFF" d="M9.49167075,12.775747 C9.18416435,13.074751 8.68515696,13.074751 8.37765056,12.775747 L6.29415657,10.7498601 C5.90194781,10.3684957 5.90194781,9.75079264 6.29415657,9.3703234 L6.30888742,9.35599985 C6.7001755,8.97553061 7.33544322,8.97553061 7.72673132,9.35689507 L8.93466065,10.5323212 L12.2739592,7.28535193 C12.666168,6.90488269 13.300515,6.90488269 13.6918031,7.28535193 L13.7065339,7.29967548 C14.097822,7.68014473 14.097822,8.29695252 13.7065339,8.67742176 L9.49167075,12.775747 Z"/>
  </g>
</svg>
