<?xml version="1.0" encoding="UTF-8"?>
<svg xmlns="http://www.w3.org/2000/svg" width="16" height="25" viewBox="0 0 16 25">
  <path fill="#7C7E8C" fill-rule="evenodd" d="M87.6943953,16.0530299 C89.2815404,15.5884302 90.7401926,14.6089239 91.7804716,13.1066197 C93.4241537,10.7333145 93.4046227,7.54819287 91.7321583,5.19362944 C88.7089757,0.935292466 82.2884391,0.935292466 79.2662845,5.19461585 C77.594848,7.5501657 77.576345,10.7362737 79.221055,13.1085926 C80.262362,14.6108968 81.7220421,15.590403 83.3091873,16.0550027 C83.7995164,16.1980323 84.1253746,16.6379717 84.1233187,17.1292044 L84.117151,18.6877341 C84.1150951,19.0655296 83.7954046,19.371317 83.4017022,19.371317 L80.7413838,19.371317 C80.3147871,19.371317 79.969398,19.7027512 79.969398,20.1111254 L79.969398,21.2819954 C79.969398,21.6903696 80.3147871,22.0218038 80.7413838,22.0218038 L83.3986184,22.0218038 C83.7933488,22.0218038 84.1140672,22.3295641 84.1140672,22.708346 L84.1140672,25.2592052 C84.1140672,25.6685659 84.4594563,26 84.885025,26 L86.1051942,26 C86.5307629,26 86.876152,25.6685659 86.876152,25.2592052 L86.876152,22.708346 C86.876152,22.3295641 87.1958425,22.0218038 87.5905729,22.0218038 L90.2488354,22.0218038 C90.6744042,22.0218038 91.0197932,21.6903696 91.0197932,21.2819954 L91.0197932,20.1111254 C91.0197932,19.7027512 90.6744042,19.371317 90.2488354,19.371317 L87.5916009,19.371317 C87.1958425,19.371317 86.876152,19.0635567 86.876152,18.6847748 L86.876152,17.1292044 C86.876152,16.6369853 87.2040661,16.1970459 87.6943953,16.0530299 L87.6943953,16.0530299 Z M82.1763933,12.3993629 C80.3322622,10.6297413 80.3322622,7.76125768 82.1763933,5.99163607 C84.0205243,4.22201445 87.0097847,4.22201445 88.8539158,5.99163607 C90.6980469,7.76125768 90.6980469,10.6297413 88.8539158,12.3993629 C87.0097847,14.1689846 84.0205243,14.1689846 82.1763933,12.3993629 L82.1763933,12.3993629 Z" transform="translate(-77.505 -1.11)"/>
</svg>
