<?xml version="1.0" encoding="UTF-8"?>
<svg xmlns="http://www.w3.org/2000/svg" width="20" height="13" viewBox="0 0 20 13">
  <path fill="#7C7E8C" d="M5,10 C5.552,10 6,10.448 6,11 L6,18 C6,18.552 5.552,19 5,19 L1,19 C0.448,19 0,18.552 0,18 L0,11 C0,10.448 0.448,10 1,10 L5,10 Z M12,6 C12.552,6 13,6.448 13,7 L13,18 C13,18.552 12.552,19 12,19 L8,19 C7.448,19 7,18.552 7,18 L7,7 C7,6.448 7.448,6 8,6 L12,6 Z M19,11 C19.552,11 20,11.448 20,12 L20,18 C20,18.552 19.552,19 19,19 L15,19 C14.448,19 14,18.552 14,18 L14,12 C14,11.448 14.448,11 15,11 L19,11 Z" transform="translate(0 -6)"/>
</svg>
