<?xml version="1.0" encoding="UTF-8"?>
<svg xmlns="http://www.w3.org/2000/svg" width="20" height="24" viewBox="0 0 20 24">
  <path fill="#7C7E8C" d="M10,5.99924997 C8.346,5.99924997 7,4.65319388 7,2.99912496 C7,1.34605609 8.346,0 10,0 C11.654,0 13,1.34505604 13,2.99912496 C13,4.65319388 11.654,5.99924997 10,5.99924997 Z M6,14.999625 C5.448,14.999625 5,14.5526064 5,13.9995833 L5,11.9995 C5,9.24338514 7.243,6.99929164 10,6.99929164 C12.757,6.99929164 15,9.24338514 15,11.9995 L15,13.9995833 C15,14.5526064 14.552,14.999625 14,14.999625 L13,14.999625 L13,18.9997917 C13,19.5528147 12.552,19.9998333 12,19.9998333 L8,19.9998333 C7.448,19.9998333 7,19.5528147 7,18.9997917 L7,14.999625 L6,14.999625 Z M16.34,16.823701 C19.366,17.736739 20,19.055794 20,19.9998333 C20,22.7479478 14.816,24 10,24 C5.184,24 0,22.7479478 0,19.9998333 C0,19.031793 0.667,17.6857369 3.841,16.7686987 L4.396,18.6907788 C2.417,19.2618026 2,19.8988291 2,19.9998333 C2,20.5138547 4.75,21.9999167 10,21.9999167 C15.25,21.9999167 18,20.5138547 18,19.9998333 C18,19.9038293 17.611,19.296804 15.762,18.7377807 L16.34,16.823701 Z"/>
</svg>
