<?xml version="1.0" encoding="UTF-8"?>
<svg xmlns="http://www.w3.org/2000/svg" width="37" height="36" viewBox="0 0 37 36">
  <path fill="#FFF" d="M18.999397,35.3997714 C26.9553851,35.3997714 33.3993754,28.9523611 33.3993754,20.999793 C33.3993754,13.0474049 26.9553851,6.5999046 18.999397,6.5999046 C11.0433909,6.5999046 4.5994006,13.0474049 4.5994006,20.999793 C4.5994006,28.9523611 11.0433909,35.3997714 18.999397,35.3997714 Z M18.990397,3.000054 C28.9371821,3.000054 36.99937,11.0585879 36.99937,20.999973 C36.99937,30.9415381 28.9371821,38.999946 18.990397,38.999946 C9.04172194,38.999946 0.99937,30.9415381 0.99937,20.999973 C0.99937,11.0585879 9.04172194,3.000054 18.990397,3.000054 Z M19.8993956,12.0000405 L19.8993956,21.4499723 L27.9993835,26.2543451 L26.6439855,28.4701418 L17.1993997,22.7999703 L17.1993997,12.0000405 L19.8993956,12.0000405 Z" transform="translate(-.5 -3)"/>
</svg>
