<?xml version="1.0" encoding="UTF-8"?>
<svg xmlns="http://www.w3.org/2000/svg" width="28" height="28" viewBox="0 0 28 28">
  <path fill="#FFF" d="M164.75,230.75 C164.75,228.095 163.22,225.815 161,224.705 L161,228.02 L164.675,231.695 C164.72,231.395 164.75,231.08 164.75,230.75 L164.75,230.75 Z M168.5,230.75 C168.5,232.16 168.2,233.48 167.69,234.71 L169.955,236.975 C170.945,235.115 171.5,233 171.5,230.75 C171.5,224.33 167.015,218.96 161,217.595 L161,220.685 C165.335,221.975 168.5,225.995 168.5,230.75 Z M146.405,217.25 L144.5,219.155 L151.595,226.25 L144.5,226.25 L144.5,235.25 L150.5,235.25 L158,242.75 L158,232.655 L164.375,239.03 C163.37,239.81 162.245,240.425 161,240.8 L161,243.89 C163.07,243.425 164.945,242.465 166.535,241.175 L169.595,244.25 L171.5,242.345 L158,228.845 L146.405,217.25 Z M158,218.75 L154.865,221.885 L158,225.02 L158,218.75 Z" transform="translate(-144 -217)"/>
</svg>
