<?xml version="1.0" encoding="UTF-8"?>
<svg xmlns="http://www.w3.org/2000/svg" width="28" height="28" viewBox="0 0 28 28">
  <path fill="#FFF" d="M4.5,13.5 L4.5,22.5 L10.5,22.5 L18,30 L18,6 L10.5,13.5 L4.5,13.5 Z M24.75,18 C24.75,15.345 23.22,13.065 21,11.955 L21,24.03 C23.22,22.935 24.75,20.655 24.75,18 Z M21,4.845 L21,7.935 C25.335,9.225 28.5,13.245 28.5,18 C28.5,22.755 25.335,26.775 21,28.065 L21,31.155 C27.015,29.79 31.5,24.42 31.5,18 C31.5,11.58 27.015,6.21 21,4.845 Z" transform="translate(-4 -4)"/>
</svg>
