<?xml version="1.0" encoding="UTF-8"?>
<svg xmlns="http://www.w3.org/2000/svg" width="20" height="20" viewBox="0 0 20 20">
  <g fill="none" fill-rule="evenodd">
    <path fill="#FFC107" fill-rule="nonzero" d="M10,0 C4.4778579,0 0,4.47785788 0,10 C0,15.523172 4.4778579,20 10,20 C15.523172,20 20,15.523172 20,10 C20,4.47785788 15.523172,0 10,0 Z"/>
    <path fill="#FFF" d="M11.5378018,10.0823328 L13.7015171,12.2458548 C14.0994943,12.6437965 14.0994943,13.2898799 13.7015171,13.6878216 L13.6866501,13.7015437 C13.2886729,14.0994854 12.6436753,14.0994854 12.2456981,13.7015437 L10.0819828,11.5380217 C10.0362383,11.4922813 9.9630471,11.4922813 9.9184462,11.5380217 L7.7535873,13.7015437 C7.3556101,14.0994854 6.7106125,14.0994854 6.3126353,13.7015437 L6.2977683,13.6866781 C5.9009347,13.2887364 5.9009347,12.6437965 6.2989119,12.2458548 L8.4626272,10.0823328 C8.5072281,10.0365923 8.5072281,9.96340767 8.4626272,9.91881076 L6.2989119,7.75414524 C5.8997911,7.35620354 5.9009347,6.71126358 6.2989119,6.3133219 L6.3137789,6.29845626 C6.7117561,5.90051458 7.3567537,5.90051458 7.7535873,6.29845626 L9.9184462,8.46312179 C9.9630471,8.50771871 10.0362383,8.50771871 10.0819828,8.46312179 L12.2456981,6.29845626 C12.6436753,5.90051458 13.2898165,5.90051458 13.6877937,6.29959977 L13.7015171,6.3133219 C14.0994943,6.71126358 14.0994943,7.35620354 13.7015171,7.75414524 L11.5378018,9.91881076 C11.4932009,9.96340767 11.4932009,10.0365923 11.5378018,10.0823328 Z"/>
  </g>
</svg>
