<?xml version="1.0" encoding="UTF-8"?>
<svg xmlns="http://www.w3.org/2000/svg" width="24" height="24" viewBox="0 0 24 24">
  <path fill="#23B8FF" d="M0,12 C8.11624501e-16,5.372583 5.372583,-4.05812251e-16 12,0 C18.627417,4.05812251e-16 24,5.372583 24,12 C24,18.627417 18.627417,24 12,24 C5.372583,24 8.11624501e-16,18.627417 0,12 Z M6.267,13.001 C5.7795,14.1515 5.7015,15.25 6.0915,15.445 C6.358,15.575 6.7805,15.25 7.177,14.678 C7.333,15.315 7.723,15.9 8.2755,16.3615 C7.6905,16.576 7.3135,16.927 7.3135,17.3235 C7.3135,17.9735 8.3405,18.5 9.6015,18.5 C10.7455,18.5 11.675,18.071 11.8635,17.525 L12.1365,17.525 C12.325,18.071 13.2545,18.5 14.3985,18.5 C15.6595,18.5 16.6865,17.9735 16.6865,17.3235 C16.6865,16.927 16.3095,16.576 15.7245,16.3615 C16.277,15.9 16.667,15.315 16.823,14.678 C17.2195,15.25 17.642,15.575 17.9085,15.445 C18.2985,15.25 18.2205,14.1515 17.733,13.0075 C17.356,12.104 16.8295,11.441 16.4395,11.298 C16.446,10.778 16.3485,10.453 16.186,10.193 C16.186,10.1735 16.225,9.959 16.082,9.6925 C15.9845,7.3525 14.4635,5.5 12,5.5 C9.5365,5.5 8.0155,7.3525 7.918,9.6925 C7.775,9.959 7.814,10.1735 7.814,10.193 C7.6515,10.453 7.554,10.778 7.5605,11.298 C7.1705,11.441 6.644,12.104 6.267,13.001 Z"/>
</svg>
