<?xml version="1.0" encoding="UTF-8"?>
<svg xmlns="http://www.w3.org/2000/svg" width="24" height="24" viewBox="0 0 24 24">
  <path fill="#23B8FF" fill-rule="evenodd" d="M108,0 C101.37551,0 96,5.3755102 96,12 C96,18.6244898 101.37551,24 108,24 C114.62449,24 120,18.6244898 120,12 C120,5.3755102 114.62449,0 108,0 L108,0 Z M106.741224,11.52 C104.341224,11.64 102.396735,12.9232653 102.396735,14.52 C102.396735,16.1412245 104.341224,17.3412245 106.741224,17.2212245 C109.141224,17.1012245 111.097959,15.602449 111.097959,14.0057143 C111.09551,12.3844898 109.138776,11.4 106.741224,11.52 L106.741224,11.52 Z M108.36,15.5387755 C107.61551,16.4987755 106.17551,16.9542857 104.76,16.2 C104.098776,15.84 104.098776,15.12 104.098776,15.12 C104.098776,15.12 103.822041,12.84 106.222041,12.5755102 C108.69551,12.3012245 109.10449,14.6155102 108.36,15.5387755 L108.36,15.5387755 Z M113.25551,15.0587755 C112.261224,17.16 108.98449,18.1787755 106.56,18 C104.25551,17.8212245 101.28,17.04 100.981224,14.2555102 C100.981224,14.2555102 100.836735,12.9942857 102.036735,11.3387755 C102.02449,11.3387755 103.8,8.88 105.84,8.18204082 C107.88,7.48653061 108.12,8.66204082 108.12,9.35755102 C108,9.95755102 107.818776,10.2930612 108.563265,10.0530612 C108.563265,10.0530612 110.578776,9.12979592 111.406531,9.93306122 C112.067755,10.5942857 111.526531,11.517551 111.526531,11.517551 C111.526531,11.517551 111.249796,11.8187755 111.827755,11.9387755 C112.44,12.12 114.24,12.96 113.25551,15.0587755 L113.25551,15.0587755 Z M110.88,8.6644898 C110.603265,8.6644898 110.37551,8.46122449 110.37551,8.16 C110.37551,7.8955102 110.578776,7.6555102 110.88,7.6555102 C112.2,7.6555102 113.28,8.7355102 113.28,10.0555102 C113.30449,10.2 113.28,10.2587755 113.28,10.3567347 L113.28,10.3934694 L113.28,10.4302041 C113.25551,10.6702041 113.04,10.8489796 112.8,10.8489796 C112.53551,10.8489796 112.29551,10.6457143 112.29551,10.3444898 L112.29551,10.2857143 L112.29551,10.1069388 C112.29551,9.30122449 111.661224,8.6644898 110.88,8.6644898 L110.88,8.6644898 Z M115.17551,10.7632653 C115.17551,10.8244898 115.17551,10.8465306 115.15102,10.9077551 C115.089796,11.1722449 114.849796,11.3632653 114.57551,11.3632653 C114.24,11.3632653 113.97551,11.0987755 113.97551,10.7632653 L113.97551,10.7044898 C114,10.5257143 114.034286,10.3077551 114.034286,10.1412245 C114.034286,8.40244898 112.63102,6.99673469 110.914286,6.99673469 C110.59102,6.99673469 110.314286,6.7322449 110.314286,6.39673469 C110.314286,6.06122449 110.59102,5.79673469 110.914286,5.79673469 C113.314286,5.79673469 115.234286,7.74122449 115.234286,10.1167347 C115.22449,10.3567347 115.2,10.56 115.17551,10.7632653 L115.17551,10.7632653 Z" transform="translate(-96)"/>
</svg>
