<?xml version="1.0" encoding="UTF-8"?>
<svg width="85px" height="84px" viewBox="0 0 85 84" version="1.1" xmlns="http://www.w3.org/2000/svg" xmlns:xlink="http://www.w3.org/1999/xlink">
    <!-- Generator: Sketch 48.2 (47327) - http://www.bohemiancoding.com/sketch -->
    <title>Group 7</title>
    <desc>Created with Sketch.</desc>
    <defs>
        <circle id="path-1" cx="70.7797619" cy="71.1843981" r="13.125"></circle>
    </defs>
    <g id="个人中心-我的VIP-没有会员" stroke="none" stroke-width="1" fill="none" fill-rule="evenodd" transform="translate(-262.000000, -693.000000)">
        <g id="Group-10" transform="translate(235.000000, 692.000000)">
            <g id="Stacked-Group" transform="translate(27.500000, 0.000000)">
                <g id="Group-7">
                    <g id="email-open" transform="translate(0.359392, 0.700000)">
                        <path d="M42,2.5 C19.9591245,2.5 2.0952381,20.3626278 2.0952381,42.4046362 C2.0952381,64.4440667 19.9605695,82.3093981 42,82.3093981 C64.0394305,82.3093981 81.9047619,64.4440667 81.9047619,42.4046362 C81.9047619,20.3626278 64.0408755,2.5 42,2.5 Z" id="Path" stroke="#23B8FF" stroke-width="4"></path>
                        <g id="Combined-Shape">
                            <use fill="#FAFAFA" fill-rule="evenodd" xlink:href="#path-1"></use>
                            <circle stroke="#23B8FF" stroke-width="3" cx="70.7797619" cy="71.1843981" r="11.625"></circle>
                        </g>
                        <path d="M64.7797619,76.1843981 L72.7797619,76.1843981 L72.7797619,74.1843981 L64.7797619,74.1843981 L64.7797619,76.1843981 Z M76.7797619,66.1843981 L64.7797619,66.1843981 L64.7797619,68.1843981 L76.7797619,68.1843981 L76.7797619,66.1843981 Z M76.7797619,70.1843981 L64.7797619,70.1843981 L64.7797619,72.1843981 L76.7797619,72.1843981 L76.7797619,70.1843981 Z" id="Shape" fill="#23B8FF" fill-rule="nonzero"></path>
                        <g id="Group-3" transform="translate(22.500000, 22.904699)">
                            <path d="M24.6726345,0.255276308 L9.22068966,0.255276308 C7.41024828,0.255276308 5.93793103,1.72923493 5.93793103,3.53803493 L5.93793103,29.8001039 C5.93793103,31.6105453 7.41024828,33.0828625 9.22068966,33.0828625 L28.9172414,33.0828625 C30.7276828,33.0828625 32.2,31.6105453 32.2,29.8001039 L32.2,7.78264183 L24.6726345,0.255276308 Z M28.9188828,29.8001039 L9.22068966,29.8001039 L9.22068966,3.53803493 L22.3517241,3.53803493 L22.3517241,10.1035522 L28.9172414,10.1035522 L28.9188828,29.8001039 Z" id="Shape" fill="#23B8FF" fill-rule="nonzero"></path>
                            <polygon id="Path" fill="#FAFAFA" points="28.9188828 29.8001039 9.22068966 29.8001039 9.22068966 3.53803493 22.3517241 3.53803493 22.3517241 10.1035522 28.9172414 10.1035522"></polygon>
                            <rect id="Rectangle-path" fill="#23B8FF" fill-rule="nonzero" x="12.5034483" y="15.0276901" width="9.84827586" height="3.28275862"></rect>
                            <rect id="Rectangle-path" fill="#23B8FF" fill-rule="nonzero" x="12.5034483" y="21.5932073" width="13.1310345" height="3.28275862"></rect>
                            <path d="M25.2743655,25.1612966 L12.8635655,25.1612966 L0.0689655172,17.8500966 L0.0689655172,34.6612966 C0.0689655172,36.7588966 1.77136552,38.4612966 3.86896552,38.4612966 L34.2689655,38.4612966 C36.3665655,38.4612966 38.0689655,36.7588966 38.0689655,34.6612966 L38.0689655,17.8500966 L25.2743655,25.1612966 Z" id="Shape" stroke="#FAFAFA" stroke-width="3" fill="#23B8FF" fill-rule="nonzero"></path>
                        </g>
                    </g>
                </g>
            </g>
        </g>
    </g>
</svg>