<?xml version="1.0" encoding="UTF-8"?>
<svg xmlns="http://www.w3.org/2000/svg" width="56" height="37" viewBox="0 0 56 37">
  <path fill="#23B8FF" d="M40.2,11.2 L40.2,5.6 L23.399496,16.80028 L6.599328,5.600336 L6.599328,11.200336 L23.399496,22.40028 L40.2,11.2 Z M40.2,0 C43.2912,0 45.8,2.506 45.8,5.6 L45.79944,30.80028 C45.79944,33.89148 43.29064,36.40028 40.19944,36.40028 L6.598796,36.40056 C3.504796,36.40056 0.998796,33.89176 0.998796,30.80056 L1.0273,5.600336 C1.0273,2.506336 3.5053,0.000336 6.599328,0.000336 L40.2,0 Z M51.4,19.6 L51.4,5.6 L57,5.6 L57,19.6 L51.4,19.6 Z M51.4,30.8 L51.4,25.2 L57,25.2 L57,30.8 L51.4,30.8 Z" transform="translate(-1 .566)"/>
</svg>
