<?xml version="1.0" encoding="UTF-8"?>
<svg xmlns="http://www.w3.org/2000/svg" width="24" height="24" viewBox="0 0 24 24">
  <path fill="#23B8FF" fill-rule="evenodd" d="M61.0359184,12.5559184 C61.0359184,12.8106122 61.3102041,13.0653061 61.5820408,13.0653061 C61.9934694,13.0653061 62.2873469,12.8106122 62.2873469,12.5559184 C62.2873469,12.244898 61.9934694,11.9902041 61.5820408,11.9902041 C61.3077551,11.9902041 61.0359184,12.244898 61.0359184,12.5559184 Z M60.4873469,8.6644898 C60.4873469,8.23346939 60.2130612,7.98122449 59.7844898,7.98122449 C59.3730612,7.98122449 58.9836735,8.23591837 58.9836735,8.6644898 C58.9836735,9.07591837 59.3755102,9.35020408 59.7844898,9.35020408 C60.2155102,9.35020408 60.4873469,9.07591837 60.4873469,8.6644898 Z M48,12 C48,18.6269388 53.3730612,24 60,24 C66.6269388,24 72,18.6269388 72,12 C72,5.37306122 66.6269388,0 60,0 C53.3730612,0 48,5.37306122 48,12 Z M55.797551,14.7257143 L53.8236735,15.722449 L54.3918367,14.04 C53.0032653,13.0628571 52.1828571,11.8310204 52.1828571,10.324898 C52.1828571,7.66530612 54.6857143,5.63265306 57.7346939,5.63265306 C60.4334694,5.63265306 62.8383673,7.23673469 63.3061224,9.5044898 C63.1102041,9.46530612 62.9338776,9.44571429 62.7771429,9.44571429 C60.117551,9.44571429 58.0653061,11.4391837 58.0653061,13.8440816 C58.0653061,14.2555102 58.1240816,14.6253061 58.2220408,15.0171429 C58.0653061,15.0391837 57.8889796,15.0391837 57.7322449,15.0391837 C57.0097959,15.0391837 56.4808163,14.9216327 55.797551,14.7257143 Z M66.2767347,18.364898 L64.7902041,17.524898 C64.2220408,17.642449 63.6759184,17.8187755 63.1077551,17.8187755 C60.4873469,17.8187755 58.4155102,16.0212245 58.4155102,13.7902041 C58.4155102,11.5616327 60.4873469,9.76163265 63.1077551,9.76163265 C65.5910204,9.76163265 67.8195918,11.5591837 67.8195918,13.7902041 C67.8195918,15.0391837 66.9795918,16.1534694 65.884898,16.9567347 L66.2767347,18.364898 Z M55.0726531,8.6644898 C55.0726531,9.07591837 55.5036735,9.35020408 55.9126531,9.35020408 C56.3044898,9.35020408 56.6155102,9.07591837 56.6155102,8.6644898 C56.6179592,8.23591837 56.3044898,7.98122449 55.9126531,7.98122449 C55.5012245,7.98122449 55.0726531,8.23591837 55.0726531,8.6644898 Z M64.1069388,12.5559184 C64.1069388,12.8106122 64.3616327,13.0653061 64.6530612,13.0653061 C65.044898,13.0653061 65.3387755,12.8106122 65.3387755,12.5559184 C65.3363265,12.244898 65.044898,11.9902041 64.6530612,11.9902041 C64.3591837,11.9902041 64.1069388,12.244898 64.1069388,12.5559184 Z" transform="translate(-48)"/>
</svg>
