<?xml version="1.0" encoding="UTF-8"?>
<svg xmlns="http://www.w3.org/2000/svg" width="19" height="21" viewBox="0 0 19 21">
  <path fill="#7C7E8C" fill-rule="evenodd" d="M4.22222222,6.025 L6.70588235,6.025 L6.70588235,2 L0,2 L0,6.025 L0,19.85 L3.35294118,23 L6.70588235,19.85 L6.70588235,6.025 L4.22222222,6.025 L4.22222222,6.7761158 L0,6.7761158 L0,5.71550974 L4.22222222,5.71550974 L4.22222222,6.025 Z M12.2941176,5.71550974 L12.2941176,2 L19,2 L19,23 L12.2941176,23 L12.2941176,19.5033885 L16.027709,19.5033885 L16.027709,18.4427825 L12.2941176,18.4427825 L12.2941176,15.2609643 L16.027709,15.2609643 L16.027709,14.2003582 L12.2941176,14.2003582 L12.2941176,11.01854 L16.027709,11.01854 L16.027709,9.95793398 L12.2941176,9.95793398 L12.2941176,6.7761158 L16.027709,6.7761158 L16.027709,5.71550974 L12.2941176,5.71550974 Z" transform="translate(0 -2)"/>
</svg>
